<svg class="animated" id="freepik_stories-road-trip" xmlns="http://www.w3.org/2000/svg" viewBox="0 0 500 500" version="1.1" xmlns:xlink="http://www.w3.org/1999/xlink" xmlns:svgjs="http://svgjs.com/svgjs"><style>svg#freepik_stories-road-trip:not(.animated) .animable {opacity: 0;}svg#freepik_stories-road-trip.animated #freepik--Sun--inject-152 {animation: 1.5s Infinite  linear floating;animation-delay: 0s;}svg#freepik_stories-road-trip.animated #freepik--Clouds--inject-152 {animation: 1.5s Infinite  linear floating;animation-delay: 0s;}            @keyframes floating {                0% {                    opacity: 1;                    transform: translateY(0px);                }                50% {                    transform: translateY(-10px);                }                100% {                    opacity: 1;                    transform: translateY(0px);                }            }        .animator-hidden { display: none; }</style><g id="freepik--background-simple--inject-152" class="animable animator-hidden" style="transform-origin: 254.373px 252.358px;"><path d="M291.71,474.09c-43,.85-94.95-11.67-122.9-47.16-42.25-53.62-94.15-41.47-132.75-152.2A236.27,236.27,0,0,1,24.31,224.9a197.66,197.66,0,0,1-1.41-25.07C23.47,126,67.05,70.33,125.31,44.06,201.93,9.5,260.72,49.23,296.52,76s137.13,36,175.93,144.54a228.72,228.72,0,0,1,12.11,51.22c4.52,39.9-2.54,85.09-25.65,118.87-1.73,2.54-3.56,5-5.45,7.46C416.41,445.73,350.39,472.93,291.71,474.09Z" style="fill: rgb(0, 0, 0); transform-origin: 254.373px 252.358px;" id="elwib5ukevrz" class="animable"></path><g id="elb6l50rcewts"><path d="M291.71,474.09c-43,.85-94.95-11.67-122.9-47.16-42.25-53.62-94.15-41.47-132.75-152.2A236.27,236.27,0,0,1,24.31,224.9a197.66,197.66,0,0,1-1.41-25.07C23.47,126,67.05,70.33,125.31,44.06,201.93,9.5,260.72,49.23,296.52,76s137.13,36,175.93,144.54a228.72,228.72,0,0,1,12.11,51.22c4.52,39.9-2.54,85.09-25.65,118.87-1.73,2.54-3.56,5-5.45,7.46C416.41,445.73,350.39,472.93,291.71,474.09Z" style="fill: rgb(255, 255, 255); opacity: 0.8; transform-origin: 254.373px 252.358px;" class="animable"></path></g></g><g id="freepik--Sun--inject-152" class="animable" style="transform-origin: 397.49px 73.475px;"><path d="M386.43,56A19.77,19.77,0,0,0,397.49,92.2a19.56,19.56,0,0,0,9.39-2.37" style="fill: none; stroke: rgb(38, 50, 56); stroke-linecap: round; stroke-linejoin: round; transform-origin: 392.268px 74.1001px;" id="el39v7n0qj7pw" class="animable"></path><path d="M411,86.86a19.77,19.77,0,0,0-21.94-32.32" style="fill: none; stroke: rgb(38, 50, 56); stroke-linecap: round; stroke-linejoin: round; transform-origin: 403.164px 69.7545px;" id="el0q7re5uh1sy" class="animable"></path><line x1="397.49" y1="98.29" x2="397.49" y2="111.97" style="fill: none; stroke: rgb(38, 50, 56); stroke-linecap: round; stroke-linejoin: round; transform-origin: 397.49px 105.13px;" id="eln4nt2es9aft" class="animable"></line><line x1="397.49" y1="34.98" x2="397.49" y2="48.66" style="fill: none; stroke: rgb(38, 50, 56); stroke-linecap: round; stroke-linejoin: round; transform-origin: 397.49px 41.82px;" id="elrh6olib2f79" class="animable"></line><line x1="373.75" y1="97.22" x2="370.26" y2="100.7" style="fill: none; stroke: rgb(38, 50, 56); stroke-linecap: round; stroke-linejoin: round; transform-origin: 372.005px 98.96px;" id="el3gregsv1y4t" class="animable"></line><line x1="379.94" y1="91.02" x2="375.79" y2="95.18" style="fill: none; stroke: rgb(38, 50, 56); stroke-linecap: round; stroke-linejoin: round; transform-origin: 377.865px 93.1px;" id="elq4p8bq7t8uc" class="animable"></line><line x1="424.71" y1="46.25" x2="415.03" y2="55.93" style="fill: none; stroke: rgb(38, 50, 56); stroke-linecap: round; stroke-linejoin: round; transform-origin: 419.87px 51.09px;" id="elq36yny22f3" class="animable"></line><line x1="422.3" y1="73.47" x2="435.99" y2="73.47" style="fill: none; stroke: rgb(38, 50, 56); stroke-linecap: round; stroke-linejoin: round; transform-origin: 429.145px 73.47px;" id="el5q1dsy7n6dm" class="animable"></line><line x1="358.99" y1="73.47" x2="372.68" y2="73.47" style="fill: none; stroke: rgb(38, 50, 56); stroke-linecap: round; stroke-linejoin: round; transform-origin: 365.835px 73.47px;" id="el5sm22u8kyxr" class="animable"></line><line x1="422.14" y1="98.13" x2="424.71" y2="100.7" style="fill: none; stroke: rgb(38, 50, 56); stroke-linecap: round; stroke-linejoin: round; transform-origin: 423.425px 99.415px;" id="elv5i23p0uqbc" class="animable"></line><line x1="415.03" y1="91.02" x2="420.95" y2="96.93" style="fill: none; stroke: rgb(38, 50, 56); stroke-linecap: round; stroke-linejoin: round; transform-origin: 417.99px 93.975px;" id="el703g8zyne1w" class="animable"></line><line x1="374.66" y1="50.65" x2="379.94" y2="55.93" style="fill: none; stroke: rgb(38, 50, 56); stroke-linecap: round; stroke-linejoin: round; transform-origin: 377.3px 53.29px;" id="el2g59udt583" class="animable"></line><line x1="370.26" y1="46.25" x2="372.79" y2="48.78" style="fill: none; stroke: rgb(38, 50, 56); stroke-linecap: round; stroke-linejoin: round; transform-origin: 371.525px 47.515px;" id="elzu2hpd61ef" class="animable"></line></g><g id="freepik--Clouds--inject-152" class="animable animator-active" style="transform-origin: 191.776px 107.38px;"><g id="elj5qxwlqo3zf"><g style="opacity: 0.3; transform-origin: 289.896px 84.4349px;" class="animable"><path d="M319,84.85c0-.19,0-.39,0-.61a11,11,0,0,0-6-10.31c-7.89-4.58-12.47,0-14.76,4.07s-5.85-2.54-11.45-1.78-5.34,6.87-6.87,10.18-4.83-1-9.16-.25-4.58,3.3-5.34,4.32S257.76,89,253.94,91a16,16,0,0,0-5.85,5.85h83.47s1-6.1-2.29-8.39C326.31,86.38,319.58,89.67,319,84.85Z" style="fill: none; stroke: rgb(0, 0, 0); stroke-linecap: round; stroke-linejoin: round; transform-origin: 289.896px 84.4349px;" id="elm1w0u0oovvq" class="animable"></path><path d="M280.27,92.47a1.81,1.81,0,0,0-.77.39c-1.08.94-1.08,1.61-1.08,1.61" style="fill: none; stroke: rgb(0, 0, 0); stroke-linecap: round; stroke-linejoin: round; transform-origin: 279.345px 93.47px;" id="elonmz166c9b" class="animable"></path><path d="M298.71,84.56c-.75,1.63-1.4,3.41-2.93,4.13-2.19,1-4.24-1.29-6.25-1.81a2.91,2.91,0,0,0-3.21,1c-.9,1-.92,3.39-2.11,4.06a5.57,5.57,0,0,1-2.3.36" style="fill: none; stroke: rgb(0, 0, 0); stroke-linecap: round; stroke-linejoin: round; transform-origin: 290.31px 88.4342px;" id="elu4fex2wnjhq" class="animable"></path><path d="M323.55,92.08c-.06-.15-.12-.29-.19-.43-1.61-3.21-5.4-.63-7.73-1.53-2.08-.8-1.4-4.08-1.68-5.79-.54-3.31-4.7-5.84-7.95-5.33a10.09,10.09,0,0,0-6.15,3.58" style="fill: none; stroke: rgb(0, 0, 0); stroke-linecap: round; stroke-linejoin: round; transform-origin: 311.7px 85.5072px;" id="el4266cc0thfe" class="animable"></path><path d="M324.21,95a15.37,15.37,0,0,0-.28-1.7" style="fill: none; stroke: rgb(0, 0, 0); stroke-linecap: round; stroke-linejoin: round; transform-origin: 324.07px 94.15px;" id="elwpqqrm0obzs" class="animable"></path></g></g><g id="elfj46soefym"><g style="opacity: 0.3; transform-origin: 118.858px 122.854px;" class="animable"><path d="M165.52,123.56a7.43,7.43,0,0,1-.06-1c-.09-7.45-2.86-12.61-9.61-16.53-12.64-7.34-20,0-23.65,6.53s-9.38-4.08-18.36-2.86-8.56,11-11,16.32-7.75-1.63-14.69-.41-7.34,5.3-8.56,6.93-12.24-2.44-18.36.82a25.52,25.52,0,0,0-9.38,9.38H185.63s1.63-9.78-3.67-13.46C177.21,126,166.43,131.29,165.52,123.56Z" style="fill: none; stroke: rgb(0, 0, 0); stroke-linecap: round; stroke-linejoin: round; transform-origin: 118.858px 122.854px;" id="elhgp7durt9ds" class="animable"></path><path d="M103.42,135.77a3,3,0,0,0-1.24.63c-1.72,1.51-1.72,2.58-1.72,2.58" style="fill: none; stroke: rgb(0, 0, 0); stroke-linecap: round; stroke-linejoin: round; transform-origin: 101.94px 137.375px;" id="elq1hkoqe8kor" class="animable"></path><path d="M133,123.1c-1.19,2.61-2.24,5.46-4.7,6.61-3.5,1.64-6.78-2.06-10-2.9a4.69,4.69,0,0,0-5.14,1.57c-1.45,1.67-1.48,5.44-3.39,6.51a8.76,8.76,0,0,1-3.69.58" style="fill: none; stroke: rgb(0, 0, 0); stroke-linecap: round; stroke-linejoin: round; transform-origin: 119.54px 129.293px;" id="elvbl6g6hhbd" class="animable"></path><path d="M172.79,135.15c-.1-.24-.2-.47-.31-.69-2.57-5.15-8.65-1-12.39-2.45-3.32-1.28-2.23-6.53-2.68-9.28-.86-5.31-7.53-9.36-12.75-8.54a16.17,16.17,0,0,0-9.85,5.73" style="fill: none; stroke: rgb(0, 0, 0); stroke-linecap: round; stroke-linejoin: round; transform-origin: 153.8px 124.617px;" id="elkbsagqwqmmh" class="animable"></path><path d="M173.84,139.86a21.69,21.69,0,0,0-.44-2.71" style="fill: none; stroke: rgb(0, 0, 0); stroke-linecap: round; stroke-linejoin: round; transform-origin: 173.62px 138.505px;" id="elq0a6dtey7sm" class="animable"></path></g></g></g><g id="freepik--Mountains--inject-152" class="animable" style="transform-origin: 260.185px 219.717px;"><path d="M43.93,290.65c31.89-30.71,106-101.22,113.92-101.22,10.16,0,77.57,48.94,77.57,48.94S337,147.87,349,148.79,476.44,276.23,476.44,276.23" style="fill: none; stroke: rgb(178, 178, 178); stroke-linecap: round; stroke-linejoin: round; transform-origin: 260.185px 219.717px;" id="elvvbltyjzmd" class="animable"></path><polyline points="289.95 192.67 329.18 176.98 336.37 197.9 344.22 192.67 350.11 199.86 358.61 187.44 390.65 225.37 391.3 195.94 400.45 201.82 401.11 195.94" style="fill: none; stroke: rgb(178, 178, 178); stroke-linecap: round; stroke-linejoin: round; transform-origin: 345.53px 201.175px;" id="ela21bf7ilj05" class="animable"></polyline><polyline points="120.59 219.48 135.63 214.9 136.28 221.44 150.67 216.87 148.05 233.87 173.55 217.52 193.17 232.56 194.48 224.06 200.36 228.63 206.9 218.17" style="fill: none; stroke: rgb(178, 178, 178); stroke-linecap: round; stroke-linejoin: round; transform-origin: 163.745px 224.385px;" id="elfg55hjex60o" class="animable"></polyline></g><g id="freepik--Trees--inject-152" class="animable" style="transform-origin: 257.535px 261.84px;"><path d="M222.93,265.22c0-.41-.3-.71-.6-.65l-17.17,3.68c-.61.13-.85-1-.29-1.32l17.3-9.76a.75.75,0,0,0,.31-.69c-.72-12.47-1.83-26.15-3.28-40.11,0-.39-.32-.66-.61-.59l-15.19,3.9c-.56.14-.86-.83-.39-1.25l14.65-13.32a.8.8,0,0,0,.22-.68c-.78-6.74-1.64-13.48-2.57-20.12l-1.2-6.63c-.07-.42-.41-.65-.7-.48l-8.84,4.87c-.53.29-1-.59-.57-1.13l8.8-11.72a.83.83,0,0,0,.14-.64c-1.76-10.92-3.7-21.31-5.8-30.66-.1-.44-.48-.63-.77-.39L195,146.87c-.48.4-1-.37-.69-1l10-18.7a.88.88,0,0,0,.07-.64A151.15,151.15,0,0,0,198.73,109c-.13-.32-.42-.45-.66-.3l-7.91,4.63c-.41.24-.84-.27-.71-.83l2.49-10c0-.18.22-.91.41-1.55l.65-2.57c-1.83-2.25-3.71-3.49-5.63-3.49s-4.06,1.4-6,4l2.95,13.63c.13.56-.3,1.07-.71.83l-7.11-4.17a.47.47,0,0,0-.67.31,158.91,158.91,0,0,0-5.77,18.31.93.93,0,0,0,.06.64l9.37,17.47c.33.62-.21,1.39-.69,1l-10.57-8.66c-.29-.24-.67-.05-.77.39-2.11,9.48-4.06,20-5.83,31.05a.88.88,0,0,0,.15.64l8,10.65c.4.54,0,1.42-.56,1.13L161,177.58c-.3-.17-.65.07-.71.5-1.32,8.89-2.51,18-3.57,27.16a.81.81,0,0,0,.22.67l13.78,12.52c.46.42.16,1.39-.39,1.25L156.13,216c-.3-.08-.58.19-.62.58-1.46,14.08-2.57,27.86-3.28,40.4a.73.73,0,0,0,.31.69l16.35,9.23c.56.32.32,1.45-.29,1.32l-16.2-3.47c-.3-.07-.58.24-.6.65-.31,7.21-.48,13.89-.48,19.83q0,5.64.2,10.84a.69.69,0,0,0,.36.63L169,303.87c.55.23.45,1.3-.12,1.35l-16.15,1.43a.68.68,0,0,0-.49.78,140.18,140.18,0,0,0,5.3,29.4c.1.34.38.5.64.39l9.92-4.28c.51-.22.9.61.54,1.13L160.93,345a.86.86,0,0,0-.06.84c6.58,14.5,16,20.77,26.5,20.77,10.27,0,19.54-6,26.11-19.92a.91.91,0,0,0-.06-.85l-8.26-11.73c-.36-.52,0-1.35.54-1.13l10.78,4.66a.49.49,0,0,0,.64-.39,139.6,139.6,0,0,0,5.41-29.69.68.68,0,0,0-.49-.78l-17.12-1.52c-.57-.05-.67-1.12-.12-1.35l17.86-7.47a.62.62,0,0,0,.34-.48l.26-1.27s0-.1,0-.15c.09-3,.14-6.05.14-9.24C223.42,279.27,223.25,272.51,222.93,265.22Z" style="fill: rgb(0, 0, 0); transform-origin: 187.361px 230.75px;" id="elyvbp480fyai" class="animable"></path><g id="elquonuyc9dje"><path d="M222.93,265.22c0-.41-.3-.71-.6-.65l-17.17,3.68c-.61.13-.85-1-.29-1.32l17.3-9.76a.75.75,0,0,0,.31-.69c-.72-12.47-1.83-26.15-3.28-40.11,0-.39-.32-.66-.61-.59l-15.19,3.9c-.56.14-.86-.83-.39-1.25l14.65-13.32a.8.8,0,0,0,.22-.68c-.78-6.74-1.64-13.48-2.57-20.12l-1.2-6.63c-.07-.42-.41-.65-.7-.48l-8.84,4.87c-.53.29-1-.59-.57-1.13l8.8-11.72a.83.83,0,0,0,.14-.64c-1.76-10.92-3.7-21.31-5.8-30.66-.1-.44-.48-.63-.77-.39L195,146.87c-.48.4-1-.37-.69-1l10-18.7a.88.88,0,0,0,.07-.64A151.15,151.15,0,0,0,198.73,109c-.13-.32-.42-.45-.66-.3l-7.91,4.63c-.41.24-.84-.27-.71-.83l2.49-10c0-.18.22-.91.41-1.55l.65-2.57c-1.83-2.25-3.71-3.49-5.63-3.49s-4.06,1.4-6,4l2.95,13.63c.13.56-.3,1.07-.71.83l-7.11-4.17a.47.47,0,0,0-.67.31,158.91,158.91,0,0,0-5.77,18.31.93.93,0,0,0,.06.64l9.37,17.47c.33.62-.21,1.39-.69,1l-10.57-8.66c-.29-.24-.67-.05-.77.39-2.11,9.48-4.06,20-5.83,31.05a.88.88,0,0,0,.15.64l8,10.65c.4.54,0,1.42-.56,1.13L161,177.58c-.3-.17-.65.07-.71.5-1.32,8.89-2.51,18-3.57,27.16a.81.81,0,0,0,.22.67l13.78,12.52c.46.42.16,1.39-.39,1.25L156.13,216c-.3-.08-.58.19-.62.58-1.46,14.08-2.57,27.86-3.28,40.4a.73.73,0,0,0,.31.69l16.35,9.23c.56.32.32,1.45-.29,1.32l-16.2-3.47c-.3-.07-.58.24-.6.65-.31,7.21-.48,13.89-.48,19.83q0,5.64.2,10.84a.69.69,0,0,0,.36.63L169,303.87c.55.23.45,1.3-.12,1.35l-16.15,1.43a.68.68,0,0,0-.49.78,140.18,140.18,0,0,0,5.3,29.4c.1.34.38.5.64.39l9.92-4.28c.51-.22.9.61.54,1.13L160.93,345a.86.86,0,0,0-.06.84c6.58,14.5,16,20.77,26.5,20.77,10.27,0,19.54-6,26.11-19.92a.91.91,0,0,0-.06-.85l-8.26-11.73c-.36-.52,0-1.35.54-1.13l10.78,4.66a.49.49,0,0,0,.64-.39,139.6,139.6,0,0,0,5.41-29.69.68.68,0,0,0-.49-.78l-17.12-1.52c-.57-.05-.67-1.12-.12-1.35l17.86-7.47a.62.62,0,0,0,.34-.48l.26-1.27s0-.1,0-.15c.09-3,.14-6.05.14-9.24C223.42,279.27,223.25,272.51,222.93,265.22Z" style="fill: rgb(255, 255, 255); opacity: 0.4; transform-origin: 187.361px 230.75px;" class="animable"></path></g><polygon points="188.8 314.45 187.7 251.78 206.96 235.81 187.55 243.7 187.19 223.21 187.03 223.54 187.15 220.54 186.63 191.09 202.58 176.36 186.94 185.75 186.59 188.87 185.95 152.37 185.6 159.56 183.91 214.11 183.18 212.66 170.67 204.52 183.81 217.3 181.67 286.46 161.91 280.25 181.45 293.68 179.98 341.18 172.54 339.7 179.75 348.7 178.94 374.59 177.96 428.79 190.81 428.79 188.9 320.13 204.46 316.54 188.8 314.45" style="fill: rgb(38, 50, 56); transform-origin: 184.435px 290.58px;" id="elzm0cagfttog" class="animable"></polygon><g id="elvgb8nl1o0k"><polygon points="188.8 314.45 187.7 251.78 206.96 235.81 187.55 243.7 187.19 223.21 187.03 223.54 187.15 220.54 186.63 191.09 202.58 176.36 186.94 185.75 186.59 188.87 185.95 152.37 185.6 159.56 183.91 214.11 183.18 212.66 170.67 204.52 183.81 217.3 181.67 286.46 161.91 280.25 181.45 293.68 179.98 341.18 172.54 339.7 179.75 348.7 178.94 374.59 177.96 428.79 190.81 428.79 188.9 320.13 204.46 316.54 188.8 314.45" style="fill: rgb(255, 255, 255); opacity: 0.5; transform-origin: 184.435px 290.58px;" class="animable"></polygon></g><path d="M115,292.44c0-.34-.25-.59-.5-.54L100.2,295c-.51.11-.71-.84-.24-1.1l14.41-8.14a.61.61,0,0,0,.27-.57c-.6-10.4-1.53-21.8-2.74-33.43,0-.33-.26-.56-.51-.49l-12.66,3.24c-.46.12-.72-.69-.33-1l12.22-11.1a.7.7,0,0,0,.19-.57c-.66-5.61-1.38-11.23-2.15-16.77l-1-5.53c-.06-.34-.34-.53-.59-.4l-7.37,4.07c-.43.24-.8-.5-.47-.95l7.34-9.77a.74.74,0,0,0,.12-.53c-1.47-9.11-3.09-17.77-4.84-25.56-.08-.36-.4-.52-.64-.32l-9.5,7.78c-.4.33-.85-.31-.58-.82l8.36-15.59a.74.74,0,0,0,.05-.53,126.71,126.71,0,0,0-4.7-14.64c-.11-.26-.35-.37-.55-.25l-6.59,3.87c-.34.2-.7-.23-.59-.7l2.07-8.31c0-.15.18-.76.34-1.29l.54-2.15c-1.53-1.88-3.09-2.91-4.69-2.91s-3.38,1.17-5,3.3l2.46,11.36c.11.47-.25.9-.59.7l-5.93-3.48c-.21-.12-.45,0-.56.26a135,135,0,0,0-4.81,15.26.69.69,0,0,0,.06.53L78.79,193c.28.51-.17,1.15-.57.82l-8.81-7.22c-.25-.2-.56,0-.65.33-1.75,7.9-3.38,16.67-4.85,25.88a.67.67,0,0,0,.12.53l6.66,8.88c.34.45,0,1.19-.47.95l-6.8-3.75c-.25-.14-.54.06-.59.42-1.1,7.41-2.09,15-3,22.63A.66.66,0,0,0,60,243l11.48,10.43c.39.35.14,1.16-.32,1l-11.87-3c-.25-.06-.48.16-.51.49-1.22,11.73-2.15,23.22-2.74,33.67a.62.62,0,0,0,.26.58L70,293.87c.47.26.27,1.21-.23,1.1l-13.51-2.89c-.25-.06-.48.2-.5.54-.26,6-.4,11.58-.4,16.53,0,3.13.06,6.15.17,9a.56.56,0,0,0,.3.52l14.24,6c.45.19.37,1.08-.1,1.13L56.46,327c-.25,0-.43.32-.4.65a117.09,117.09,0,0,0,4.41,24.51c.09.28.32.42.54.32l8.26-3.57c.43-.18.76.51.45.94l-6.39,9.08a.75.75,0,0,0,0,.7c5.49,12.09,13.35,17.32,22.09,17.32,8.56,0,16.29-5,21.76-16.61a.72.72,0,0,0,0-.71l-6.88-9.78c-.3-.43,0-1.12.45-.94l9,3.88c.21.1.45,0,.53-.32a116.17,116.17,0,0,0,4.51-24.75.58.58,0,0,0-.41-.65L100,325.79c-.48-.05-.56-.94-.1-1.13l14.89-6.22a.51.51,0,0,0,.28-.4l.22-1.06s0-.08,0-.13q.12-3.72.12-7.7C115.42,304.15,115.28,298.52,115,292.44Z" style="fill: rgb(0, 0, 0); transform-origin: 85.3853px 263.745px;" id="elphnf2oh7nr" class="animable"></path><g id="elf6k7q42mksn"><path d="M115,292.44c0-.34-.25-.59-.5-.54L100.2,295c-.51.11-.71-.84-.24-1.1l14.41-8.14a.61.61,0,0,0,.27-.57c-.6-10.4-1.53-21.8-2.74-33.43,0-.33-.26-.56-.51-.49l-12.66,3.24c-.46.12-.72-.69-.33-1l12.22-11.1a.7.7,0,0,0,.19-.57c-.66-5.61-1.38-11.23-2.15-16.77l-1-5.53c-.06-.34-.34-.53-.59-.4l-7.37,4.07c-.43.24-.8-.5-.47-.95l7.34-9.77a.74.74,0,0,0,.12-.53c-1.47-9.11-3.09-17.77-4.84-25.56-.08-.36-.4-.52-.64-.32l-9.5,7.78c-.4.33-.85-.31-.58-.82l8.36-15.59a.74.74,0,0,0,.05-.53,126.71,126.71,0,0,0-4.7-14.64c-.11-.26-.35-.37-.55-.25l-6.59,3.87c-.34.2-.7-.23-.59-.7l2.07-8.31c0-.15.18-.76.34-1.29l.54-2.15c-1.53-1.88-3.09-2.91-4.69-2.91s-3.38,1.17-5,3.3l2.46,11.36c.11.47-.25.9-.59.7l-5.93-3.48c-.21-.12-.45,0-.56.26a135,135,0,0,0-4.81,15.26.69.69,0,0,0,.06.53L78.79,193c.28.51-.17,1.15-.57.82l-8.81-7.22c-.25-.2-.56,0-.65.33-1.75,7.9-3.38,16.67-4.85,25.88a.67.67,0,0,0,.12.53l6.66,8.88c.34.45,0,1.19-.47.95l-6.8-3.75c-.25-.14-.54.06-.59.42-1.1,7.41-2.09,15-3,22.63A.66.66,0,0,0,60,243l11.48,10.43c.39.35.14,1.16-.32,1l-11.87-3c-.25-.06-.48.16-.51.49-1.22,11.73-2.15,23.22-2.74,33.67a.62.62,0,0,0,.26.58L70,293.87c.47.26.27,1.21-.23,1.1l-13.51-2.89c-.25-.06-.48.2-.5.54-.26,6-.4,11.58-.4,16.53,0,3.13.06,6.15.17,9a.56.56,0,0,0,.3.52l14.24,6c.45.19.37,1.08-.1,1.13L56.46,327c-.25,0-.43.32-.4.65a117.09,117.09,0,0,0,4.41,24.51c.09.28.32.42.54.32l8.26-3.57c.43-.18.76.51.45.94l-6.39,9.08a.75.75,0,0,0,0,.7c5.49,12.09,13.35,17.32,22.09,17.32,8.56,0,16.29-5,21.76-16.61a.72.72,0,0,0,0-.71l-6.88-9.78c-.3-.43,0-1.12.45-.94l9,3.88c.21.1.45,0,.53-.32a116.17,116.17,0,0,0,4.51-24.75.58.58,0,0,0-.41-.65L100,325.79c-.48-.05-.56-.94-.1-1.13l14.89-6.22a.51.51,0,0,0,.28-.4l.22-1.06s0-.08,0-.13q.12-3.72.12-7.7C115.42,304.15,115.28,298.52,115,292.44Z" style="fill: rgb(255, 255, 255); opacity: 0.4; transform-origin: 85.3853px 263.745px;" class="animable"></path></g><polygon points="86.56 333.48 85.64 281.24 101.7 267.93 85.52 274.5 85.22 257.43 85.09 257.7 85.19 255.2 84.75 230.65 98.05 218.38 85.01 226.2 84.72 228.8 84.19 198.38 83.89 204.37 82.49 249.84 81.88 248.63 71.45 241.85 82.41 252.5 80.62 310.15 64.14 304.97 80.43 316.17 79.21 355.76 73.01 354.52 79.02 362.03 78.35 383.62 77.53 428.79 88.23 428.79 86.64 338.22 99.61 335.22 86.56 333.48" style="fill: rgb(38, 50, 56); transform-origin: 82.92px 313.585px;" id="elh1086gw3vh" class="animable"></polygon><g id="ela09bo1ij7bh"><polygon points="86.56 333.48 85.64 281.24 101.7 267.93 85.52 274.5 85.22 257.43 85.09 257.7 85.19 255.2 84.75 230.65 98.05 218.38 85.01 226.2 84.72 228.8 84.19 198.38 83.89 204.37 82.49 249.84 81.88 248.63 71.45 241.85 82.41 252.5 80.62 310.15 64.14 304.97 80.43 316.17 79.21 355.76 73.01 354.52 79.02 362.03 78.35 383.62 77.53 428.79 88.23 428.79 86.64 338.22 99.61 335.22 86.56 333.48" style="fill: rgb(255, 255, 255); opacity: 0.5; transform-origin: 82.92px 313.585px;" class="animable"></polygon></g><path d="M459.33,312.27c0-.29-.21-.51-.43-.46l-12.23,2.62c-.43.09-.6-.72-.2-.94l12.32-7A.54.54,0,0,0,459,306c-.51-8.88-1.3-18.63-2.33-28.57,0-.28-.23-.47-.44-.42l-10.82,2.78c-.4.1-.61-.59-.28-.89l10.44-9.49a.58.58,0,0,0,.16-.48c-.56-4.8-1.18-9.6-1.84-14.33l-.85-4.73c-.05-.3-.29-.46-.5-.34l-6.3,3.47c-.37.21-.69-.42-.4-.8l6.27-8.36a.63.63,0,0,0,.1-.45c-1.26-7.78-2.64-15.18-4.14-21.84-.07-.32-.34-.45-.55-.28L439.42,228c-.35.29-.73-.26-.5-.7l7.14-13.32a.65.65,0,0,0,.05-.46,107.85,107.85,0,0,0-4-12.5.33.33,0,0,0-.47-.22l-5.63,3.3c-.29.17-.6-.19-.5-.59l1.76-7.1c0-.13.16-.65.3-1.11l.46-1.83c-1.31-1.61-2.65-2.49-4-2.49s-2.89,1-4.28,2.82l2.1,9.71c.09.4-.21.76-.5.59l-5.07-3a.33.33,0,0,0-.48.21,115.48,115.48,0,0,0-4.11,13.05.63.63,0,0,0,0,.45l6.67,12.45c.24.44-.15,1-.49.7l-7.53-6.17c-.21-.17-.48,0-.55.28-1.5,6.75-2.89,14.25-4.15,22.12a.6.6,0,0,0,.1.46l5.7,7.59c.28.38,0,1-.41.8l-5.81-3.2c-.21-.12-.46,0-.5.36-.94,6.33-1.79,12.84-2.54,19.34a.55.55,0,0,0,.15.48l9.82,8.92c.33.3.11,1-.28.89l-10.15-2.6c-.2-.06-.4.14-.43.42-1,10-1.84,19.84-2.34,28.78a.5.5,0,0,0,.22.48l11.64,6.58c.41.22.23,1-.2.94L409.09,312c-.21,0-.41.17-.43.46-.22,5.14-.34,9.9-.34,14.12,0,2.69.05,5.26.14,7.73a.5.5,0,0,0,.26.45l12.17,5.08c.39.16.32.93-.09,1l-11.51,1c-.21,0-.36.27-.34.55a100.08,100.08,0,0,0,3.77,20.94.35.35,0,0,0,.46.28l7.06-3.05c.37-.16.65.43.39.81l-5.46,7.76a.59.59,0,0,0-.05.59c4.69,10.33,11.41,14.8,18.88,14.8,7.32,0,13.92-4.3,18.6-14.19a.65.65,0,0,0,0-.61l-5.88-8.35c-.26-.38,0-1,.38-.81l7.68,3.32c.18.08.38,0,.46-.28a99.71,99.71,0,0,0,3.85-21.15.48.48,0,0,0-.35-.55l-12.2-1.09c-.41,0-.47-.8-.08-1l12.72-5.32a.48.48,0,0,0,.25-.34l.18-.9s0-.07,0-.11c.06-2.12.1-4.31.1-6.59C459.68,322.28,459.56,317.47,459.33,312.27Z" style="fill: rgb(0, 0, 0); transform-origin: 434.015px 287.75px;" id="elet2tvu9r62a" class="animable"></path><g id="elridunqg04da"><path d="M459.33,312.27c0-.29-.21-.51-.43-.46l-12.23,2.62c-.43.09-.6-.72-.2-.94l12.32-7A.54.54,0,0,0,459,306c-.51-8.88-1.3-18.63-2.33-28.57,0-.28-.23-.47-.44-.42l-10.82,2.78c-.4.1-.61-.59-.28-.89l10.44-9.49a.58.58,0,0,0,.16-.48c-.56-4.8-1.18-9.6-1.84-14.33l-.85-4.73c-.05-.3-.29-.46-.5-.34l-6.3,3.47c-.37.21-.69-.42-.4-.8l6.27-8.36a.63.63,0,0,0,.1-.45c-1.26-7.78-2.64-15.18-4.14-21.84-.07-.32-.34-.45-.55-.28L439.42,228c-.35.29-.73-.26-.5-.7l7.14-13.32a.65.65,0,0,0,.05-.46,107.85,107.85,0,0,0-4-12.5.33.33,0,0,0-.47-.22l-5.63,3.3c-.29.17-.6-.19-.5-.59l1.76-7.1c0-.13.16-.65.3-1.11l.46-1.83c-1.31-1.61-2.65-2.49-4-2.49s-2.89,1-4.28,2.82l2.1,9.71c.09.4-.21.76-.5.59l-5.07-3a.33.33,0,0,0-.48.21,115.48,115.48,0,0,0-4.11,13.05.63.63,0,0,0,0,.45l6.67,12.45c.24.44-.15,1-.49.7l-7.53-6.17c-.21-.17-.48,0-.55.28-1.5,6.75-2.89,14.25-4.15,22.12a.6.6,0,0,0,.1.46l5.7,7.59c.28.38,0,1-.41.8l-5.81-3.2c-.21-.12-.46,0-.5.36-.94,6.33-1.79,12.84-2.54,19.34a.55.55,0,0,0,.15.48l9.82,8.92c.33.3.11,1-.28.89l-10.15-2.6c-.2-.06-.4.14-.43.42-1,10-1.84,19.84-2.34,28.78a.5.5,0,0,0,.22.48l11.64,6.58c.41.22.23,1-.2.94L409.09,312c-.21,0-.41.17-.43.46-.22,5.14-.34,9.9-.34,14.12,0,2.69.05,5.26.14,7.73a.5.5,0,0,0,.26.45l12.17,5.08c.39.16.32.93-.09,1l-11.51,1c-.21,0-.36.27-.34.55a100.08,100.08,0,0,0,3.77,20.94.35.35,0,0,0,.46.28l7.06-3.05c.37-.16.65.43.39.81l-5.46,7.76a.59.59,0,0,0-.05.59c4.69,10.33,11.41,14.8,18.88,14.8,7.32,0,13.92-4.3,18.6-14.19a.65.65,0,0,0,0-.61l-5.88-8.35c-.26-.38,0-1,.38-.81l7.68,3.32c.18.08.38,0,.46-.28a99.71,99.71,0,0,0,3.85-21.15.48.48,0,0,0-.35-.55l-12.2-1.09c-.41,0-.47-.8-.08-1l12.72-5.32a.48.48,0,0,0,.25-.34l.18-.9s0-.07,0-.11c.06-2.12.1-4.31.1-6.59C459.68,322.28,459.56,317.47,459.33,312.27Z" style="fill: rgb(255, 255, 255); opacity: 0.4; transform-origin: 434.015px 287.75px;" class="animable"></path></g><polygon points="435.02 347.34 434.23 302.69 447.96 291.32 434.13 296.94 433.88 282.34 433.76 282.58 433.84 280.44 433.47 259.46 444.84 248.97 433.69 255.66 433.44 257.88 432.99 231.88 432.74 237.01 431.54 275.86 431.02 274.83 422.1 269.03 431.47 278.14 429.94 327.4 415.86 322.97 429.78 332.55 428.74 366.38 423.44 365.32 428.57 371.74 428 390.18 427.3 428.79 436.45 428.79 435.09 351.39 446.17 348.83 435.02 347.34" style="fill: rgb(38, 50, 56); transform-origin: 431.91px 330.335px;" id="elbj9hea9ey4v" class="animable"></polygon><g id="el5n5ip7365vt"><polygon points="435.02 347.34 434.23 302.69 447.96 291.32 434.13 296.94 433.88 282.34 433.76 282.58 433.84 280.44 433.47 259.46 444.84 248.97 433.69 255.66 433.44 257.88 432.99 231.88 432.74 237.01 431.54 275.86 431.02 274.83 422.1 269.03 431.47 278.14 429.94 327.4 415.86 322.97 429.78 332.55 428.74 366.38 423.44 365.32 428.57 371.74 428 390.18 427.3 428.79 436.45 428.79 435.09 351.39 446.17 348.83 435.02 347.34" style="fill: rgb(255, 255, 255); opacity: 0.5; transform-origin: 431.91px 330.335px;" class="animable"></polygon></g></g><g id="freepik--Car--inject-152" class="animable" style="transform-origin: 276.925px 337.395px;"><path d="M369.61,382.25h-8.19l-.12.18a13.58,13.58,0,0,0-2.12-.18c-10,0-18.08,10.42-18.08,23.27s8.1,23.27,18.08,23.27c.72,0,6.65-.07,7.35-.17l-5.11.17h8.19c10,0,18.08-10.42,18.08-23.27S379.6,382.25,369.61,382.25Z" style="fill: rgb(38, 50, 56); stroke: rgb(38, 50, 56); stroke-linecap: round; stroke-linejoin: round; transform-origin: 364.395px 405.52px;" id="elemj7gob3wku" class="animable"></path><path d="M201.82,382.25h-8.2l-.11.18a13.58,13.58,0,0,0-2.12-.18c-10,0-18.09,10.42-18.09,23.27s8.1,23.27,18.09,23.27a14.91,14.91,0,0,0,2.12-.17l.11.17h8.2c10,0,18.08-10.42,18.08-23.27S211.8,382.25,201.82,382.25Z" style="fill: rgb(38, 50, 56); stroke: rgb(38, 50, 56); stroke-linecap: round; stroke-linejoin: round; transform-origin: 196.6px 405.52px;" id="elhoyz4lmit0d" class="animable"></path><path d="M447.56,382.94h-3.93l-3.52-24.69a6.1,6.1,0,0,0-6-5.24H412l-35.78-38a20.47,20.47,0,0,0-14.91-6.44H266.51a15.19,15.19,0,0,0-10.95,4.67L92.67,382v29H336.89l61.29-.43,45.45-3v-.21h3.74a1.49,1.49,0,0,0,1.49-1.49V384.24A1.3,1.3,0,0,0,447.56,382.94Z" style="fill: rgb(0, 0, 0); stroke: rgb(38, 50, 56); stroke-linecap: round; stroke-linejoin: round; transform-origin: 270.765px 359.785px;" id="el6m146kpnpm" class="animable"></path><line x1="384.14" y1="313.73" x2="399.52" y2="313.73" style="fill: none; stroke: rgb(38, 50, 56); stroke-linecap: round; stroke-linejoin: round; transform-origin: 391.83px 313.73px;" id="eldvtv93ylvua" class="animable"></line><line x1="393.37" y1="327.06" x2="455.38" y2="327.06" style="fill: none; stroke: rgb(38, 50, 56); stroke-linecap: round; stroke-linejoin: round; transform-origin: 424.375px 327.06px;" id="elx7prc5hse98" class="animable"></line><line x1="445.64" y1="363.96" x2="460.5" y2="363.96" style="fill: none; stroke: rgb(38, 50, 56); stroke-linecap: round; stroke-linejoin: round; transform-origin: 453.07px 363.96px;" id="elht5osbbmwuv" class="animable"></line><line x1="452.82" y1="405.47" x2="471.75" y2="405.47" style="fill: none; stroke: rgb(38, 50, 56); stroke-linecap: round; stroke-linejoin: round; transform-origin: 462.285px 405.47px;" id="elpiltl0pdqkb" class="animable"></line><path d="M378.18,406.61v4.17l20-.14,45.45-3v-.21h3.74a1.5,1.5,0,0,0,1.33-.84Z" style="fill: rgb(38, 50, 56); stroke: rgb(38, 50, 56); stroke-linecap: round; stroke-linejoin: round; transform-origin: 413.44px 408.685px;" id="el845pugp39d4" class="animable"></path><path d="M398.18,410.64h0a1.49,1.49,0,0,0-.09-3h-23l-85-99.06H266.51a15.19,15.19,0,0,0-10.95,4.67L92.67,382v29H336.89Z" style="fill: rgb(38, 50, 56); stroke: rgb(38, 50, 56); stroke-linecap: round; stroke-linejoin: round; transform-origin: 246.15px 359.79px;" id="el05cyy23vc5i" class="animable"></path><path d="M130.73,382.25h-8.2l-5.37,7.89a28.44,28.44,0,0,0,0,30.77l5.37,7.88h8.2c10,0,18.08-10.42,18.08-23.27S140.72,382.25,130.73,382.25Z" style="fill: rgb(38, 50, 56); stroke: rgb(38, 50, 56); stroke-linecap: round; stroke-linejoin: round; transform-origin: 130.725px 405.52px;" id="elhpx1x2567vm" class="animable"></path><ellipse cx="120.3" cy="405.52" rx="18.08" ry="23.27" style="fill: rgb(99, 99, 99); stroke: rgb(38, 50, 56); stroke-linecap: round; stroke-linejoin: round; transform-origin: 120.3px 405.52px;" id="el2xnzc7xqgls" class="animable"></ellipse><ellipse cx="120.3" cy="405.52" rx="14.43" ry="18.56" style="fill: rgb(255, 255, 255); stroke: rgb(38, 50, 56); stroke-linecap: round; stroke-linejoin: round; transform-origin: 120.3px 405.52px;" id="elo81afnd937q" class="animable"></ellipse><path d="M123.35,405.52c0,2.17-1.37,3.93-3,3.93s-3-1.76-3-3.93,1.37-3.92,3-3.92S123.35,403.36,123.35,405.52Z" style="fill: rgb(255, 255, 255); stroke: rgb(38, 50, 56); stroke-linecap: round; stroke-linejoin: round; transform-origin: 120.35px 405.525px;" id="ellxy1pqb9lse" class="animable"></path><path d="M313.25,382.25h-8.19l-5.37,7.89a28.44,28.44,0,0,0,0,30.77l5.37,7.88h8.19c10,0,18.09-10.42,18.09-23.27S323.24,382.25,313.25,382.25Z" style="fill: rgb(38, 50, 56); stroke: rgb(38, 50, 56); stroke-linecap: round; stroke-linejoin: round; transform-origin: 313.255px 405.52px;" id="elqxyqjcrib6e" class="animable"></path><ellipse cx="302.83" cy="405.52" rx="18.08" ry="23.27" style="fill: rgb(99, 99, 99); stroke: rgb(38, 50, 56); stroke-linecap: round; stroke-linejoin: round; transform-origin: 302.83px 405.52px;" id="elzq8spo0xyw" class="animable"></ellipse><ellipse cx="302.83" cy="405.52" rx="14.43" ry="18.56" style="fill: rgb(255, 255, 255); stroke: rgb(38, 50, 56); stroke-linecap: round; stroke-linejoin: round; transform-origin: 302.83px 405.52px;" id="elia3lbaa8pmf" class="animable"></ellipse><path d="M305.87,405.52c0,2.17-1.36,3.93-3,3.93s-3.05-1.76-3.05-3.93,1.36-3.92,3.05-3.92S305.87,403.36,305.87,405.52Z" style="fill: rgb(255, 255, 255); stroke: rgb(38, 50, 56); stroke-linecap: round; stroke-linejoin: round; transform-origin: 302.845px 405.525px;" id="elsnflez7j3i" class="animable"></path><path d="M376.26,315c-.29-.31-.61-.59-.92-.89H301.46v36.51H409.83Z" style="fill: rgb(38, 50, 56); stroke: rgb(38, 50, 56); stroke-linecap: round; stroke-linejoin: round; transform-origin: 355.645px 332.365px;" id="elwj875h3fjes" class="animable"></path><path d="M384.75,382.94h-4.31L376.17,353H348.85l-35.77-38a20.51,20.51,0,0,0-14.92-6.44H211.1a15.21,15.21,0,0,0-10.95,4.67l-55.6,37.18L93.1,372.65l-8,10.81a15.42,15.42,0,0,0-3,9.2v18.41H98.22v-6.13c0-15,10.92-27.17,24.37-27.17h0c12,0,19.45,9.73,21.32,22.93l1.47,10.37H281v-6.13c0-15,6.16-27.17,22.71-27.17h0c14.74,0,20,9.73,22.31,22.93l1.73,9.94,52.73-3v-.21h4.31Z" style="fill: rgb(0, 0, 0); stroke: rgb(38, 50, 56); stroke-linecap: round; stroke-linejoin: round; transform-origin: 233.445px 359.815px;" id="elvig5m5qxhf" class="animable"></path><rect x="227.14" y="358.33" width="9.66" height="3.87" style="fill: rgb(38, 50, 56); stroke: rgb(38, 50, 56); stroke-linecap: round; stroke-linejoin: round; transform-origin: 231.97px 360.265px;" id="elhegbtd2wmat" class="animable"></rect><path d="M200.62,318.75l-47.74,31.7h89.23V314.58h-31.6A13.81,13.81,0,0,0,200.62,318.75Z" style="fill: rgb(38, 50, 56); stroke: rgb(38, 50, 56); stroke-linecap: round; stroke-linejoin: round; transform-origin: 197.495px 332.515px;" id="el9i36lxnos5" class="animable"></path><path d="M191.22,350.31a8.09,8.09,0,0,1-.15-1.49,7.44,7.44,0,0,1,14.87,0,7.31,7.31,0,0,1-.15,1.49h4.13a12.15,12.15,0,0,0,.11-1.49,11.52,11.52,0,0,0-23,0,12.16,12.16,0,0,0,.1,1.49Z" style="fill: rgb(110, 110, 110); stroke: rgb(38, 50, 56); stroke-linecap: round; stroke-linejoin: round; transform-origin: 198.53px 344.144px;" id="eln8e9i8vflb" class="animable"></path><polygon points="221.55 326.35 218.2 330.81 220.06 331.92 222.66 339.72 227.87 338.61 228.24 341.58 236.04 338.61 232.7 333.78 228.24 333.41 221.55 326.35" style="fill: rgb(255, 255, 255); stroke: rgb(38, 50, 56); stroke-linecap: round; stroke-linejoin: round; transform-origin: 227.12px 333.965px;" id="elcxfzi0x7nbk" class="animable"></polygon><path d="M224.89,317.05,223,319.66s-14.86,6.31-10.4,7.43,17.84.74,20.81.74,8.55.37,8.55.37l-6-5.57-7.43-1.49Z" style="fill: rgb(255, 255, 255); stroke: rgb(38, 50, 56); stroke-linecap: round; stroke-linejoin: round; transform-origin: 226.863px 322.625px;" id="el74t8ckhn6t7" class="animable"></path><path d="M222.29,350.5,219,354.59s-11.9-6.32-14.5-6.69-6.28,2.76-6.28,2.76a39.91,39.91,0,0,1,6.1-.11c3.4.11.23,2.11,15,14.82,1.13,1,2.78.41,3.71-.75s7.07-11.15,7.07-11.15Z" style="fill: rgb(255, 255, 255); stroke: rgb(38, 50, 56); stroke-linecap: round; stroke-linejoin: round; transform-origin: 214.16px 356.875px;" id="el7kpiwcx1wte" class="animable"></path><polygon points="230.09 339.35 238.25 336 240 338.75 233 342 230.09 339.35" style="fill: rgb(255, 255, 255); stroke: rgb(38, 50, 56); stroke-linecap: round; stroke-linejoin: round; transform-origin: 235.045px 339px;" id="ellskdcfjeiy" class="animable"></polygon><path d="M236.07,345.56a4.85,4.85,0,0,0-1.56-4.29c-1.29-1.16-3-2.32-4.41-1.92-2.61.75-11.75,15.29-11.75,15.29l12.32,8.11Z" style="fill: rgb(255, 255, 255); stroke: rgb(38, 50, 56); stroke-linecap: round; stroke-linejoin: round; transform-origin: 227.234px 351.01px;" id="ele7awjml5q0q" class="animable"></path><path d="M200.69,336.22l-4.23,1.62,3.42,1,1.13,2.44-2.11.65s1.63,1.62,2.28,1.62a22.4,22.4,0,0,0,2.76-.49l7.15,7.48h9.16L206.5,341,203,336.87Z" style="fill: rgb(255, 255, 255); stroke: rgb(38, 50, 56); stroke-linecap: round; stroke-linejoin: round; transform-origin: 208.355px 343.38px;" id="elsgi7sge1z1i" class="animable"></path><path d="M310.1,320.42l20.3,20.76a5.54,5.54,0,0,1,1.39,2.49h0a5.46,5.46,0,0,1-5.29,6.78H248.09V314.58h48.13A19.44,19.44,0,0,1,310.1,320.42Z" style="fill: rgb(38, 50, 56); stroke: rgb(38, 50, 56); stroke-linecap: round; stroke-linejoin: round; transform-origin: 290.021px 332.515px;" id="elj2s044qg2lj" class="animable"></path><polygon points="291.08 314.58 283.2 314.58 254.9 350.45 262.78 350.45 291.08 314.58" style="fill: rgb(255, 255, 255); stroke: rgb(38, 50, 56); stroke-linecap: round; stroke-linejoin: round; transform-origin: 272.99px 332.515px;" id="el0lwqvsywigjd" class="animable"></polygon><polygon points="248.09 317.12 248.09 345.76 272.69 314.58 250.09 314.58 248.09 317.12" style="fill: rgb(255, 255, 255); stroke: rgb(38, 50, 56); stroke-linecap: round; stroke-linejoin: round; transform-origin: 260.39px 330.17px;" id="el7upgs5pocvw" class="animable"></polygon><path d="M376.17,353h57.9a6.1,6.1,0,0,1,6,5.24l3.52,24.69H380.44Z" style="fill: rgb(0, 0, 0); stroke: rgb(38, 50, 56); stroke-linecap: round; stroke-linejoin: round; transform-origin: 409.88px 367.965px;" id="el2erigauyltx" class="animable"></path><rect x="403.67" y="366.5" width="27.46" height="11.28" style="fill: rgb(255, 255, 255); stroke: rgb(38, 50, 56); stroke-linecap: round; stroke-linejoin: round; transform-origin: 417.4px 372.14px;" id="elq8cvpt2uqq" class="animable"></rect><line x1="446.65" y1="387.55" x2="329" y2="387.55" style="fill: rgb(255, 255, 255); stroke: rgb(38, 50, 56); stroke-linecap: round; stroke-linejoin: round; stroke-width: 2px; transform-origin: 387.825px 387.55px;" id="elirciesz5bq" class="animable"></line><line x1="276.42" y1="387.55" x2="146.04" y2="387.55" style="fill: rgb(255, 255, 255); stroke: rgb(38, 50, 56); stroke-linecap: round; stroke-linejoin: round; stroke-width: 2px; transform-origin: 211.23px 387.55px;" id="elfvjchsielc" class="animable"></line><line x1="102.75" y1="387.55" x2="87.83" y2="387.55" style="fill: rgb(255, 255, 255); stroke: rgb(38, 50, 56); stroke-linecap: round; stroke-linejoin: round; stroke-width: 2px; transform-origin: 95.29px 387.55px;" id="eldmf5dmtneq" class="animable"></line><path d="M398.93,366.69H373a6.46,6.46,0,0,0-5.78,3.57l-4.34,8.68a2.61,2.61,0,0,0,2.34,3.77h33.72Z" style="fill: rgb(255, 255, 255); stroke: rgb(38, 50, 56); stroke-linecap: round; stroke-linejoin: round; transform-origin: 380.774px 374.7px;" id="elo0ldqwuf7cc" class="animable"></path><polygon points="398.93 366.69 378.03 366.69 380.31 382.71 398.93 382.71 398.93 366.69" style="fill: rgb(38, 50, 56); stroke: rgb(38, 50, 56); stroke-linecap: round; stroke-linejoin: round; transform-origin: 388.48px 374.7px;" id="elg3c7zbicwek" class="animable"></polygon><polygon points="441.22 366.69 434.89 366.69 434.8 382.71 443.5 382.71 441.22 366.69" style="fill: rgb(38, 50, 56); stroke: rgb(38, 50, 56); stroke-linecap: round; stroke-linejoin: round; transform-origin: 439.15px 374.7px;" id="elf97rcfg0xnr" class="animable"></polygon><rect x="143.91" y="342.97" width="16.65" height="14.09" rx="2" style="fill: rgb(38, 50, 56); stroke: rgb(38, 50, 56); stroke-linecap: round; stroke-linejoin: round; transform-origin: 152.235px 350.015px;" id="eln8lzn6u1ido" class="animable"></rect><line x1="243.82" y1="354.5" x2="243.82" y2="403.18" style="fill: none; stroke: rgb(38, 50, 56); stroke-linecap: round; stroke-linejoin: round; transform-origin: 243.82px 378.84px;" id="elcxbcvny4g7b" class="animable"></line><path d="M135.58,376.28s11.73,6.61,13.23,29.24H273.28" style="fill: none; stroke: rgb(38, 50, 56); stroke-linecap: round; stroke-linejoin: round; transform-origin: 204.43px 390.9px;" id="elzw6t8b9eech" class="animable"></path><path d="M332.2,385.88s-6.13-16-26.66-16c-14.31,0-21.15,7.52-24.58,13.45" style="fill: none; stroke: rgb(38, 50, 56); stroke-linecap: round; stroke-linejoin: round; transform-origin: 306.58px 377.88px;" id="elwzsgvzy3gvq" class="animable"></path><rect x="220.96" y="304.76" width="135.46" height="3.43" style="fill: rgb(38, 50, 56); stroke: rgb(38, 50, 56); stroke-linecap: round; stroke-linejoin: round; transform-origin: 288.69px 306.475px;" id="elfnsdefpf7gk" class="animable"></rect><path d="M275.6,283.6s-22.3.49-35.25.49-14.74-2-14.38.5.72,19.82.72,19.82l49.27.49Z" style="fill: rgb(255, 255, 255); stroke: rgb(38, 50, 56); stroke-linecap: round; stroke-linejoin: round; transform-origin: 250.945px 294.116px;" id="elqybqljzpt5l" class="animable"></path><rect x="265.82" y="288.41" width="4.83" height="6.92" style="fill: rgb(255, 255, 255); stroke: rgb(38, 50, 56); stroke-linecap: round; stroke-linejoin: round; transform-origin: 268.235px 291.87px;" id="elm0jny3grqqi" class="animable"></rect><rect x="229.23" y="288.41" width="4.83" height="6.92" style="fill: rgb(255, 255, 255); stroke: rgb(38, 50, 56); stroke-linecap: round; stroke-linejoin: round; transform-origin: 231.645px 291.87px;" id="elozufue9avum" class="animable"></rect><path d="M275.6,283.6s25.17,1,33.44,0,9.35-1,9.35,1,.36,20.81.36,20.81L276,304.9Z" style="fill: rgb(38, 50, 56); stroke: rgb(38, 50, 56); stroke-linecap: round; stroke-linejoin: round; transform-origin: 297.175px 294.177px;" id="elgjkc0u4378s" class="animable"></path><line x1="226.41" y1="292.43" x2="275.47" y2="292.15" style="fill: rgb(38, 50, 56); stroke: rgb(38, 50, 56); stroke-linecap: round; stroke-linejoin: round; transform-origin: 250.94px 292.29px;" id="el2vmc0zwdi6d" class="animable"></line><line x1="277.08" y1="292.71" x2="317.9" y2="292.71" style="fill: none; stroke: rgb(255, 255, 255); stroke-linecap: round; stroke-linejoin: round; transform-origin: 297.49px 292.71px;" id="el6my3qk2yhxk" class="animable"></line><rect x="240.89" y="291.87" width="12.47" height="4.71" style="fill: rgb(38, 50, 56); stroke: rgb(38, 50, 56); stroke-linecap: round; stroke-linejoin: round; transform-origin: 247.125px 294.225px;" id="elaulfu4vtibo" class="animable"></rect><path d="M368.73,254.43c-1.67-.27-3.38-.47-5.09-.62-22.13-1.93-44-7-66.3-7.41a268.2,268.2,0,0,0-54.29,5c-15.44,2.9-32.06,3.61-46.21,11.12-6.58,3.49-20.23,23.53-6,26.69,5.85,1.3,9.11-5.21,20.81-5.21s161.63.42,165.53-.23,8.45,8.45,14.31,9.75c6.46,1.43,4.79-11.78,4.44-15C394.2,262.82,382.32,256.57,368.73,254.43Z" style="fill: rgb(0, 0, 0); stroke: rgb(38, 50, 56); stroke-linecap: round; stroke-linejoin: round; transform-origin: 290.491px 270.007px;" id="elu799m6qdkt" class="animable"></path><path d="M374.57,257.11s9.75,1.95,14.31,8.45,5.2,12.36,3.9,21.46" style="fill: none; stroke: rgb(38, 50, 56); stroke-linecap: round; stroke-linejoin: round; transform-origin: 383.972px 272.065px;" id="elkruzditznye" class="animable"></path><path d="M234.56,303.68s-5.86-46.76,11.73-53.84" style="fill: none; stroke: rgb(38, 50, 56); stroke-linecap: round; stroke-linejoin: round; transform-origin: 239.957px 276.76px;" id="el4a83b0e3dxu" class="animable"></path><path d="M286.11,304.07s-2.85-47.18,19-58.07" style="fill: none; stroke: rgb(38, 50, 56); stroke-linecap: round; stroke-linejoin: round; transform-origin: 295.549px 275.035px;" id="eltnyxk1tocho" class="animable"></path><path d="M277.55,304.07s-1-46.38,34.73-57.67" style="fill: none; stroke: rgb(38, 50, 56); stroke-linecap: round; stroke-linejoin: round; transform-origin: 294.914px 275.235px;" id="elt8ncot4ofpc" class="animable"></path><path d="M252.64,249.06s-18.56,10.61-23.45,55" style="fill: none; stroke: rgb(38, 50, 56); stroke-linecap: round; stroke-linejoin: round; transform-origin: 240.915px 276.56px;" id="el9wgawpouc4b" class="animable"></path><rect x="290.63" y="277.62" width="59.38" height="27.44" style="fill: rgb(186, 186, 186); stroke: rgb(38, 50, 56); stroke-linecap: round; stroke-linejoin: round; transform-origin: 320.32px 291.34px;" id="elpbuoxfvgjke" class="animable"></rect><rect x="328.87" y="277.62" width="21.14" height="27.44" style="fill: rgb(138, 138, 138); stroke: rgb(38, 50, 56); stroke-linecap: round; stroke-linejoin: round; transform-origin: 339.44px 291.34px;" id="elnm5z6flhcy" class="animable"></rect><path d="M290.63,277.62l3.66-4.43A8.8,8.8,0,0,1,301.1,270h38.19a8.8,8.8,0,0,1,6.61,3l4.12,4.66Z" style="fill: rgb(255, 255, 255); stroke: rgb(38, 50, 56); stroke-linecap: round; stroke-linejoin: round; transform-origin: 320.325px 273.83px;" id="elrnptfpfz04" class="animable"></path><path d="M339.91,270.12h-4.63A4.69,4.69,0,0,0,331,272.9l-2.16,4.72" style="fill: none; stroke: rgb(38, 50, 56); stroke-linecap: round; stroke-linejoin: round; transform-origin: 334.375px 273.87px;" id="elfn00ka8m55" class="animable"></path><rect x="290.63" y="277.62" width="59.38" height="5.59" style="fill: rgb(255, 255, 255); stroke: rgb(38, 50, 56); stroke-linecap: round; stroke-linejoin: round; transform-origin: 320.32px 280.415px;" id="elkvsl61utfva" class="animable"></rect><rect x="328.39" y="277.62" width="21.63" height="5.59" style="fill: rgb(138, 138, 138); stroke: rgb(38, 50, 56); stroke-linecap: round; stroke-linejoin: round; transform-origin: 339.205px 280.415px;" id="el7verttukg62" class="animable"></rect><polygon points="293.61 283.23 296.32 284.94 300.47 284.94 303.18 283.51 293.61 283.23" style="fill: rgb(38, 50, 56); stroke: rgb(38, 50, 56); stroke-linecap: round; stroke-linejoin: round; transform-origin: 298.395px 284.085px;" id="el6blr09wb2v" class="animable"></polygon><polygon points="314.32 283.23 317.04 284.94 321.18 284.94 323.89 283.51 314.32 283.23" style="fill: rgb(38, 50, 56); stroke: rgb(38, 50, 56); stroke-linecap: round; stroke-linejoin: round; transform-origin: 319.105px 284.085px;" id="el8hac2sfjat" class="animable"></polygon><path d="M298.5,305.27,312,270.08s1.65-1,5.59,0c0,0-3.29.32-4.6,2.3s-11.51,32.89-11.51,32.89" style="fill: none; stroke: rgb(38, 50, 56); stroke-linecap: round; stroke-linejoin: round; transform-origin: 308.045px 287.453px;" id="elfh9iv9flzlt" class="animable"></path></g><g id="freepik--Floor--inject-152" class="animable" style="transform-origin: 248.51px 428.79px;"><line x1="481.15" y1="428.79" x2="491.02" y2="428.79" style="fill: none; stroke: rgb(38, 50, 56); stroke-linecap: round; stroke-linejoin: round; transform-origin: 486.085px 428.79px;" id="el1o1p8qjqhbt" class="animable"></line><line x1="55" y1="428.79" x2="472.8" y2="428.79" style="fill: none; stroke: rgb(38, 50, 56); stroke-linecap: round; stroke-linejoin: round; transform-origin: 263.9px 428.79px;" id="elc0iy2nu8b8t" class="animable"></line><line x1="6" y1="428.79" x2="46" y2="428.79" style="fill: none; stroke: rgb(38, 50, 56); stroke-linecap: round; stroke-linejoin: round; transform-origin: 26px 428.79px;" id="elkhuuphzn1k" class="animable"></line></g><defs>     <filter id="active" height="200%">         <feMorphology in="SourceAlpha" result="DILATED" operator="dilate" radius="2"></feMorphology>                <feFlood flood-color="#32DFEC" flood-opacity="1" result="PINK"></feFlood>        <feComposite in="PINK" in2="DILATED" operator="in" result="OUTLINE"></feComposite>        <feMerge>            <feMergeNode in="OUTLINE"></feMergeNode>            <feMergeNode in="SourceGraphic"></feMergeNode>        </feMerge>    </filter>    <filter id="hover" height="200%">        <feMorphology in="SourceAlpha" result="DILATED" operator="dilate" radius="2"></feMorphology>                <feFlood flood-color="#ff0000" flood-opacity="0.5" result="PINK"></feFlood>        <feComposite in="PINK" in2="DILATED" operator="in" result="OUTLINE"></feComposite>        <feMerge>            <feMergeNode in="OUTLINE"></feMergeNode>            <feMergeNode in="SourceGraphic"></feMergeNode>        </feMerge>            <feColorMatrix type="matrix" values="0   0   0   0   0                0   1   0   0   0                0   0   0   0   0                0   0   0   1   0 "></feColorMatrix>    </filter></defs></svg>